<?xml version="1.0" encoding="utf-8"?>
<!-- Generator: Adobe Illustrator 21.1.0, SVG Export Plug-In . SVG Version: 6.00 Build 0)  -->
<svg version="1.1" id="edd616ee-62ca-405a-8873-14a730b2da97"
	 xmlns="http://www.w3.org/2000/svg" xmlns:xlink="http://www.w3.org/1999/xlink" x="0px" y="0px" width="409.9px" height="369px"
	 viewBox="0 0 409.9 369" style="enable-background:new 0 0 409.9 369;" xml:space="preserve">
<style type="text/css">
	.st0{fill:#454544;}
	.st1{fill:#B4C420;}
</style>
<title>170576_Logo_RGB</title>
<path class="st0" d="M149.1,30.6v30.9c-48.4,0.1-87.7,39.4-87.7,87.8c0,0.1,0,0.2,0,0.2H30.6c0-0.1,0-0.2,0-0.2
	C30.6,83.8,83.7,30.8,149.1,30.6z"/>
<path class="st0" d="M186.8,239.3c0,11.7-5.6,19.9-14.9,19.9c-3.9,0-7.6-1.8-10-4.9l-0.6,3.8h-8v-53.7h9.1v20.3
	c2.4-3.3,6.2-5.3,10.3-5.3C181.7,219.4,186.8,226.7,186.8,239.3z M177.3,239.3c0-10-3-13-7.3-13c-3.3,0-5.7,2.2-7.5,5.1V248
	c1.7,2.6,4.1,4.3,7,4.3C174.1,252.4,177.3,248.7,177.3,239.3z"/>
<path class="st0" d="M219.5,227l-18.2,24h18.6v7.1h-29v-6.6l18.3-24h-16.7v-7.1h27.1v6.6H219.5z"/>
<path class="st0" d="M235.2,253.4c0,2.6-2.1,4.6-4.7,4.6c-2.5,0-4.6-2.1-4.5-4.7c0-2.5,2.1-4.6,4.7-4.5
	C233.1,248.9,235.2,250.9,235.2,253.4L235.2,253.4z"/>
<path class="st0" d="M251.9,207c0.1,3.2-2.4,5.8-5.6,5.9c-3.2,0.1-5.8-2.4-5.9-5.6c-0.1-3.2,2.4-5.8,5.6-5.9h0.1
	c3-0.2,5.6,2.1,5.8,5.2C251.9,206.7,251.9,206.8,251.9,207z M250.8,258.1h-9.1v-37.7h9.1V258.1z"/>
<path class="st0" d="M283.4,256.4c-2.8,1.9-6.1,2.9-9.5,2.8c-7.4-0.1-11.3-4.3-11.3-12.3V227h-5.9v-6.6h5.9V211h9.1v9.4h8.8
	l-0.9,6.6h-7.8v19.6c0,3.7,1.2,5.2,4,5.2c1.6,0,3.2-0.5,4.5-1.4L283.4,256.4z"/>
<path class="st1" d="M260.5,338.3c65.5-0.1,118.6-53.2,118.7-118.7c0-0.1,0-0.2,0-0.2h-30.9c0,0.1,0,0.2,0,0.2
	c-0.1,48.5-39.3,87.8-87.8,87.8h-0.1L260.5,338.3C260.4,338.3,260.4,338.3,260.5,338.3z"/>
<path class="st1" d="M141.3,127.8l-7,8.1c-3.2-3-7.5-4.7-11.9-4.7c-8.7,0-15.2,6.6-15.2,23.7c0,16.5,6.3,23.4,15.3,23.4
	c5.5,0,9.3-2.6,13.1-5.5l6.4,8.2c-5.3,5.3-12.6,8.3-20.2,8.2c-17.4,0-29.4-12-29.4-34.4c0-22.1,12.6-34.2,29-34.2
	C130.2,120.7,135.9,123.2,141.3,127.8z"/>
<path class="st1" d="M214,187.7h-17l-19.5-65.5h14.9l13.4,54l13.4-54h13.7L214,187.7z"/>
<path class="st1" d="M256.9,187.7h-12.5v-65.5h12.5V187.7z"/>
<path class="st1" d="M313.9,128.9l-6.6,7.7c-4.6-3.8-9.2-5.5-14.5-5.5c-5.7,0-9.6,2.5-9.6,7.1c0,4.5,2.5,6.4,13.2,9.8
	c11.8,3.8,19.4,8.7,19.4,20.8c0,12-9.5,20.5-25.4,20.5c-10.9,0-18.8-3.9-24.2-9.2l7.2-7.9c4.7,4.1,9.9,6.5,16.7,6.5
	c6.7,0,11.3-3.2,11.3-9c0-5.2-2.6-7.5-12.5-10.5c-14.2-4.5-19.9-10.1-19.9-20.1c0-11.2,9.7-18.5,22.9-18.5
	C301.6,120.7,308.2,123.6,313.9,128.9z"/>
<path class="st1" d="M165.9,187.4h-12.5v-65.2h12.5V187.4z"/>
<path class="st1" d="M336.3,182.5c0,3.7-3,6.7-6.7,6.6c-3.7,0-6.6-3.1-6.6-6.7c0-3.7,3.1-6.6,6.7-6.6
	C333.4,175.9,336.3,178.9,336.3,182.5z"/>
</svg>
